<mxfile host="Electron" modified="2023-11-25T02:58:45.768Z" agent="Mozilla/5.0 (Windows NT 10.0; Win64; x64) AppleWebKit/537.36 (KHTML, like Gecko) draw.io/21.2.8 Chrome/112.0.5615.165 Electron/24.2.0 Safari/537.36" etag="9hpcgMUyR8CvuQzCAKWt" version="21.2.8" type="device">
  <diagram name="第 1 页" id="MV9iiwtvkkRCQwVIXTja">
    <mxGraphModel dx="1290" dy="671" grid="1" gridSize="10" guides="1" tooltips="1" connect="1" arrows="1" fold="1" page="1" pageScale="1" pageWidth="3300" pageHeight="4681" math="0" shadow="0">
      <root>
        <mxCell id="0" />
        <mxCell id="1" parent="0" />
        <mxCell id="5pEuGjXElPdgstFfbfj8-7" value="浏览器" style="rounded=1;whiteSpace=wrap;html=1;arcSize=3;align=center;verticalAlign=top;fontSize=20;fillColor=#f5f5f5;fontColor=#333333;strokeColor=none;" parent="1" vertex="1">
          <mxGeometry x="750" y="200" width="220" height="300" as="geometry" />
        </mxCell>
        <mxCell id="5pEuGjXElPdgstFfbfj8-1" value="SpringBoot" style="rounded=1;whiteSpace=wrap;html=1;arcSize=3;verticalAlign=top;align=center;fontSize=20;fillColor=#f5f5f5;fontColor=#333333;strokeColor=none;" parent="1" vertex="1">
          <mxGeometry x="1190" y="200" width="220" height="300" as="geometry" />
        </mxCell>
        <mxCell id="5pEuGjXElPdgstFfbfj8-11" value="1.输入用户名、密码，并请求登录" style="rounded=0;whiteSpace=wrap;html=1;fontSize=15;fillColor=#d5e8d4;strokeColor=#82b366;" parent="1" vertex="1">
          <mxGeometry x="770" y="255" width="180" height="65" as="geometry" />
        </mxCell>
        <mxCell id="5pEuGjXElPdgstFfbfj8-12" value="2.校验用户名和密码。若合法，则创建一个Session对象，并将登录用户的标识保存至Session对象中，最后响应Session ID" style="rounded=0;whiteSpace=wrap;html=1;fontSize=15;fillColor=#dae8fc;strokeColor=#6c8ebf;" parent="1" vertex="1">
          <mxGeometry x="1210" y="250" width="180" height="100" as="geometry" />
        </mxCell>
        <mxCell id="5pEuGjXElPdgstFfbfj8-14" value="3.将Session ID保存至浏览器的Cookie中" style="rounded=0;whiteSpace=wrap;html=1;fontSize=15;fillColor=#d5e8d4;strokeColor=#82b366;" parent="1" vertex="1">
          <mxGeometry x="770" y="340" width="180" height="60" as="geometry" />
        </mxCell>
        <mxCell id="5pEuGjXElPdgstFfbfj8-15" value="5.根据请求所携带的Cookie中的Session ID，获取Session对象，若Session对象存在，则提取登录用户的信息，并提供响应" style="rounded=0;whiteSpace=wrap;html=1;fontSize=15;fillColor=#dae8fc;strokeColor=#6c8ebf;" parent="1" vertex="1">
          <mxGeometry x="1210" y="360" width="180" height="120" as="geometry" />
        </mxCell>
        <mxCell id="5pEuGjXElPdgstFfbfj8-19" value="" style="endArrow=classic;html=1;rounded=0;exitX=1;exitY=0.5;exitDx=0;exitDy=0;entryX=0;entryY=0.25;entryDx=0;entryDy=0;fillColor=#d5e8d4;strokeColor=#82b366;strokeWidth=2;" parent="1" source="5pEuGjXElPdgstFfbfj8-11" target="5pEuGjXElPdgstFfbfj8-12" edge="1">
          <mxGeometry width="50" height="50" relative="1" as="geometry">
            <mxPoint x="1350" y="560" as="sourcePoint" />
            <mxPoint x="1220" y="265" as="targetPoint" />
          </mxGeometry>
        </mxCell>
        <mxCell id="5pEuGjXElPdgstFfbfj8-20" value="" style="endArrow=classic;html=1;rounded=0;exitX=0;exitY=0.75;exitDx=0;exitDy=0;entryX=1;entryY=0.5;entryDx=0;entryDy=0;fillColor=#dae8fc;strokeColor=#6c8ebf;strokeWidth=2;" parent="1" source="5pEuGjXElPdgstFfbfj8-12" target="5pEuGjXElPdgstFfbfj8-14" edge="1">
          <mxGeometry width="50" height="50" relative="1" as="geometry">
            <mxPoint x="1230" y="285" as="sourcePoint" />
            <mxPoint x="590" y="360" as="targetPoint" />
          </mxGeometry>
        </mxCell>
        <mxCell id="5pEuGjXElPdgstFfbfj8-21" value="" style="endArrow=classic;html=1;rounded=0;exitX=1;exitY=0.5;exitDx=0;exitDy=0;entryX=0;entryY=0.5;entryDx=0;entryDy=0;fillColor=#d5e8d4;strokeColor=#82b366;strokeWidth=2;" parent="1" source="YhXiGD-Wfi2Vi3fZhOP_-1" target="5pEuGjXElPdgstFfbfj8-15" edge="1">
          <mxGeometry width="50" height="50" relative="1" as="geometry">
            <mxPoint x="1240" y="295" as="sourcePoint" />
            <mxPoint x="600" y="370" as="targetPoint" />
          </mxGeometry>
        </mxCell>
        <mxCell id="YhXiGD-Wfi2Vi3fZhOP_-1" value="4.后续请求均携带上述Cookie" style="rounded=0;whiteSpace=wrap;html=1;fontSize=15;fillColor=#d5e8d4;strokeColor=#82b366;" parent="1" vertex="1">
          <mxGeometry x="770" y="420" width="180" height="60" as="geometry" />
        </mxCell>
      </root>
    </mxGraphModel>
  </diagram>
</mxfile>
